<mxfile host="app.diagrams.net" modified="2024-02-26T09:42:19.506Z" agent="Mozilla/5.0 (Windows NT 10.0; Win64; x64) AppleWebKit/537.36 (KHTML, like Gecko) Chrome/121.0.0.0 Safari/537.36" etag="GqS-CzqhhfQURb-a5Ks9" version="23.1.6" type="github">
  <diagram id="R2lEEEUBdFMjLlhIrx00" name="Page-1">
    <mxGraphModel dx="1173" dy="624" grid="1" gridSize="10" guides="1" tooltips="1" connect="1" arrows="1" fold="1" page="1" pageScale="1" pageWidth="850" pageHeight="1100" math="0" shadow="0" extFonts="Permanent Marker^https://fonts.googleapis.com/css?family=Permanent+Marker">
      <root>
        <mxCell id="0" />
        <mxCell id="1" parent="0" />
        <mxCell id="X7LjUGPbY0fBhvlBGE30-14" value="" style="edgeStyle=orthogonalEdgeStyle;rounded=0;orthogonalLoop=1;jettySize=auto;html=1;endArrow=none;endFill=0;" edge="1" parent="1" source="X7LjUGPbY0fBhvlBGE30-1" target="X7LjUGPbY0fBhvlBGE30-9">
          <mxGeometry relative="1" as="geometry" />
        </mxCell>
        <mxCell id="X7LjUGPbY0fBhvlBGE30-1" value="Hotel" style="rounded=0;whiteSpace=wrap;html=1;" vertex="1" parent="1">
          <mxGeometry x="60" y="70" width="120" height="60" as="geometry" />
        </mxCell>
        <mxCell id="X7LjUGPbY0fBhvlBGE30-16" value="" style="edgeStyle=orthogonalEdgeStyle;rounded=0;orthogonalLoop=1;jettySize=auto;html=1;endArrow=none;endFill=0;" edge="1" parent="1" source="X7LjUGPbY0fBhvlBGE30-2" target="X7LjUGPbY0fBhvlBGE30-12">
          <mxGeometry relative="1" as="geometry" />
        </mxCell>
        <mxCell id="X7LjUGPbY0fBhvlBGE30-22" value="" style="edgeStyle=orthogonalEdgeStyle;rounded=0;orthogonalLoop=1;jettySize=auto;html=1;endArrow=none;endFill=0;" edge="1" parent="1" source="X7LjUGPbY0fBhvlBGE30-2" target="X7LjUGPbY0fBhvlBGE30-10">
          <mxGeometry relative="1" as="geometry" />
        </mxCell>
        <mxCell id="X7LjUGPbY0fBhvlBGE30-113" style="edgeStyle=orthogonalEdgeStyle;rounded=0;orthogonalLoop=1;jettySize=auto;html=1;entryX=0.5;entryY=1;entryDx=0;entryDy=0;strokeColor=default;align=center;verticalAlign=middle;fontFamily=Helvetica;fontSize=11;fontColor=default;labelBackgroundColor=default;endArrow=none;endFill=0;" edge="1" parent="1" source="X7LjUGPbY0fBhvlBGE30-2" target="X7LjUGPbY0fBhvlBGE30-41">
          <mxGeometry relative="1" as="geometry" />
        </mxCell>
        <mxCell id="X7LjUGPbY0fBhvlBGE30-2" value="Room" style="rounded=0;whiteSpace=wrap;html=1;" vertex="1" parent="1">
          <mxGeometry x="410" y="70" width="120" height="60" as="geometry" />
        </mxCell>
        <mxCell id="X7LjUGPbY0fBhvlBGE30-3" value="Facilities" style="rounded=0;whiteSpace=wrap;html=1;" vertex="1" parent="1">
          <mxGeometry x="710" y="70" width="120" height="60" as="geometry" />
        </mxCell>
        <mxCell id="X7LjUGPbY0fBhvlBGE30-28" style="edgeStyle=orthogonalEdgeStyle;rounded=0;orthogonalLoop=1;jettySize=auto;html=1;entryX=0;entryY=0.5;entryDx=0;entryDy=0;strokeColor=default;align=center;verticalAlign=middle;fontFamily=Helvetica;fontSize=11;fontColor=default;labelBackgroundColor=default;endArrow=none;endFill=0;" edge="1" parent="1" source="X7LjUGPbY0fBhvlBGE30-4" target="X7LjUGPbY0fBhvlBGE30-13">
          <mxGeometry relative="1" as="geometry" />
        </mxCell>
        <mxCell id="X7LjUGPbY0fBhvlBGE30-33" style="edgeStyle=orthogonalEdgeStyle;rounded=0;orthogonalLoop=1;jettySize=auto;html=1;entryX=0.5;entryY=0;entryDx=0;entryDy=0;strokeColor=default;align=center;verticalAlign=middle;fontFamily=Helvetica;fontSize=11;fontColor=default;labelBackgroundColor=default;endArrow=none;endFill=0;" edge="1" parent="1" source="X7LjUGPbY0fBhvlBGE30-4" target="X7LjUGPbY0fBhvlBGE30-30">
          <mxGeometry relative="1" as="geometry" />
        </mxCell>
        <mxCell id="X7LjUGPbY0fBhvlBGE30-95" style="edgeStyle=orthogonalEdgeStyle;rounded=0;orthogonalLoop=1;jettySize=auto;html=1;entryX=0.5;entryY=1;entryDx=0;entryDy=0;strokeColor=default;align=center;verticalAlign=middle;fontFamily=Helvetica;fontSize=11;fontColor=default;labelBackgroundColor=default;endArrow=none;endFill=0;" edge="1" parent="1" source="X7LjUGPbY0fBhvlBGE30-4" target="X7LjUGPbY0fBhvlBGE30-53">
          <mxGeometry relative="1" as="geometry" />
        </mxCell>
        <mxCell id="X7LjUGPbY0fBhvlBGE30-4" value="Guest" style="rounded=0;whiteSpace=wrap;html=1;" vertex="1" parent="1">
          <mxGeometry x="200" y="285" width="120" height="60" as="geometry" />
        </mxCell>
        <mxCell id="X7LjUGPbY0fBhvlBGE30-5" value="" style="rounded=0;whiteSpace=wrap;html=1;" vertex="1" parent="1">
          <mxGeometry x="50" y="460" width="120" height="60" as="geometry" />
        </mxCell>
        <mxCell id="X7LjUGPbY0fBhvlBGE30-7" value="" style="rounded=0;whiteSpace=wrap;html=1;" vertex="1" parent="1">
          <mxGeometry x="530" y="380" width="120" height="60" as="geometry" />
        </mxCell>
        <mxCell id="X7LjUGPbY0fBhvlBGE30-15" value="" style="edgeStyle=orthogonalEdgeStyle;rounded=0;orthogonalLoop=1;jettySize=auto;html=1;strokeColor=default;endArrow=none;endFill=0;" edge="1" parent="1" source="X7LjUGPbY0fBhvlBGE30-9" target="X7LjUGPbY0fBhvlBGE30-2">
          <mxGeometry relative="1" as="geometry" />
        </mxCell>
        <mxCell id="X7LjUGPbY0fBhvlBGE30-9" value="Has" style="rhombus;whiteSpace=wrap;html=1;" vertex="1" parent="1">
          <mxGeometry x="260" y="75" width="50" height="50" as="geometry" />
        </mxCell>
        <mxCell id="X7LjUGPbY0fBhvlBGE30-121" style="edgeStyle=orthogonalEdgeStyle;rounded=0;orthogonalLoop=1;jettySize=auto;html=1;strokeColor=default;align=center;verticalAlign=middle;fontFamily=Helvetica;fontSize=11;fontColor=default;labelBackgroundColor=default;endArrow=none;endFill=0;" edge="1" parent="1" source="X7LjUGPbY0fBhvlBGE30-10" target="X7LjUGPbY0fBhvlBGE30-3">
          <mxGeometry relative="1" as="geometry" />
        </mxCell>
        <mxCell id="X7LjUGPbY0fBhvlBGE30-10" value="Has" style="rhombus;whiteSpace=wrap;html=1;" vertex="1" parent="1">
          <mxGeometry x="610" y="75" width="50" height="50" as="geometry" />
        </mxCell>
        <mxCell id="X7LjUGPbY0fBhvlBGE30-26" value="" style="edgeStyle=orthogonalEdgeStyle;rounded=0;orthogonalLoop=1;jettySize=auto;html=1;strokeColor=default;align=center;verticalAlign=middle;fontFamily=Helvetica;fontSize=11;fontColor=default;labelBackgroundColor=default;endArrow=none;endFill=0;" edge="1" parent="1" source="X7LjUGPbY0fBhvlBGE30-12" target="X7LjUGPbY0fBhvlBGE30-4">
          <mxGeometry relative="1" as="geometry" />
        </mxCell>
        <mxCell id="X7LjUGPbY0fBhvlBGE30-12" value="book" style="rhombus;whiteSpace=wrap;html=1;" vertex="1" parent="1">
          <mxGeometry x="400" y="290" width="50" height="50" as="geometry" />
        </mxCell>
        <mxCell id="X7LjUGPbY0fBhvlBGE30-29" style="edgeStyle=orthogonalEdgeStyle;rounded=0;orthogonalLoop=1;jettySize=auto;html=1;exitX=1;exitY=0.5;exitDx=0;exitDy=0;entryX=0;entryY=0.5;entryDx=0;entryDy=0;strokeColor=default;align=center;verticalAlign=middle;fontFamily=Helvetica;fontSize=11;fontColor=default;labelBackgroundColor=default;endArrow=none;endFill=0;" edge="1" parent="1" source="X7LjUGPbY0fBhvlBGE30-13" target="X7LjUGPbY0fBhvlBGE30-7">
          <mxGeometry relative="1" as="geometry" />
        </mxCell>
        <mxCell id="X7LjUGPbY0fBhvlBGE30-13" value="has" style="rhombus;whiteSpace=wrap;html=1;" vertex="1" parent="1">
          <mxGeometry x="425" y="385" width="50" height="50" as="geometry" />
        </mxCell>
        <mxCell id="X7LjUGPbY0fBhvlBGE30-104" style="edgeStyle=orthogonalEdgeStyle;rounded=0;orthogonalLoop=1;jettySize=auto;html=1;entryX=0.5;entryY=1;entryDx=0;entryDy=0;strokeColor=default;align=center;verticalAlign=middle;fontFamily=Helvetica;fontSize=11;fontColor=default;labelBackgroundColor=default;endArrow=none;endFill=0;" edge="1" parent="1" source="X7LjUGPbY0fBhvlBGE30-19" target="X7LjUGPbY0fBhvlBGE30-30">
          <mxGeometry relative="1" as="geometry" />
        </mxCell>
        <mxCell id="X7LjUGPbY0fBhvlBGE30-19" value="Bill" style="rounded=0;whiteSpace=wrap;html=1;" vertex="1" parent="1">
          <mxGeometry x="55" y="465" width="110" height="50" as="geometry" />
        </mxCell>
        <mxCell id="X7LjUGPbY0fBhvlBGE30-90" style="edgeStyle=orthogonalEdgeStyle;rounded=0;orthogonalLoop=1;jettySize=auto;html=1;entryX=0.5;entryY=1;entryDx=0;entryDy=0;strokeColor=default;align=center;verticalAlign=middle;fontFamily=Helvetica;fontSize=11;fontColor=default;labelBackgroundColor=default;endArrow=none;endFill=0;" edge="1" parent="1" source="X7LjUGPbY0fBhvlBGE30-20" target="X7LjUGPbY0fBhvlBGE30-64">
          <mxGeometry relative="1" as="geometry" />
        </mxCell>
        <mxCell id="X7LjUGPbY0fBhvlBGE30-20" value="Preference" style="rounded=0;whiteSpace=wrap;html=1;" vertex="1" parent="1">
          <mxGeometry x="535" y="385" width="110" height="50" as="geometry" />
        </mxCell>
        <mxCell id="X7LjUGPbY0fBhvlBGE30-30" value="pays" style="rhombus;whiteSpace=wrap;html=1;" vertex="1" parent="1">
          <mxGeometry x="250" y="380" width="50" height="50" as="geometry" />
        </mxCell>
        <mxCell id="X7LjUGPbY0fBhvlBGE30-71" style="edgeStyle=orthogonalEdgeStyle;rounded=0;orthogonalLoop=1;jettySize=auto;html=1;exitX=0.5;exitY=1;exitDx=0;exitDy=0;strokeColor=default;align=center;verticalAlign=middle;fontFamily=Helvetica;fontSize=11;fontColor=default;labelBackgroundColor=default;endArrow=none;endFill=0;" edge="1" parent="1" source="X7LjUGPbY0fBhvlBGE30-36" target="X7LjUGPbY0fBhvlBGE30-1">
          <mxGeometry relative="1" as="geometry" />
        </mxCell>
        <mxCell id="X7LjUGPbY0fBhvlBGE30-36" value="&lt;u&gt;hotel id&lt;/u&gt;" style="ellipse;whiteSpace=wrap;html=1;fontFamily=Helvetica;fontSize=11;fontColor=default;labelBackgroundColor=default;" vertex="1" parent="1">
          <mxGeometry x="25" y="10" width="55" height="20" as="geometry" />
        </mxCell>
        <mxCell id="X7LjUGPbY0fBhvlBGE30-72" style="edgeStyle=orthogonalEdgeStyle;rounded=0;orthogonalLoop=1;jettySize=auto;html=1;entryX=0.75;entryY=0;entryDx=0;entryDy=0;strokeColor=default;align=center;verticalAlign=middle;fontFamily=Helvetica;fontSize=11;fontColor=default;labelBackgroundColor=default;endArrow=none;endFill=0;" edge="1" parent="1" source="X7LjUGPbY0fBhvlBGE30-38" target="X7LjUGPbY0fBhvlBGE30-1">
          <mxGeometry relative="1" as="geometry" />
        </mxCell>
        <mxCell id="X7LjUGPbY0fBhvlBGE30-38" value="name" style="ellipse;whiteSpace=wrap;html=1;fontFamily=Helvetica;fontSize=11;fontColor=default;labelBackgroundColor=default;" vertex="1" parent="1">
          <mxGeometry x="130" y="10" width="50" height="20" as="geometry" />
        </mxCell>
        <mxCell id="X7LjUGPbY0fBhvlBGE30-73" style="edgeStyle=orthogonalEdgeStyle;rounded=0;orthogonalLoop=1;jettySize=auto;html=1;entryX=1;entryY=0;entryDx=0;entryDy=0;strokeColor=default;align=center;verticalAlign=middle;fontFamily=Helvetica;fontSize=11;fontColor=default;labelBackgroundColor=default;endArrow=none;endFill=0;" edge="1" parent="1" source="X7LjUGPbY0fBhvlBGE30-39" target="X7LjUGPbY0fBhvlBGE30-1">
          <mxGeometry relative="1" as="geometry" />
        </mxCell>
        <mxCell id="X7LjUGPbY0fBhvlBGE30-39" value="ph no." style="ellipse;whiteSpace=wrap;html=1;fontFamily=Helvetica;fontSize=11;fontColor=default;labelBackgroundColor=default;" vertex="1" parent="1">
          <mxGeometry x="205" y="30" width="55" height="20" as="geometry" />
        </mxCell>
        <mxCell id="X7LjUGPbY0fBhvlBGE30-40" value="address" style="ellipse;whiteSpace=wrap;html=1;fontFamily=Helvetica;fontSize=11;fontColor=default;labelBackgroundColor=default;" vertex="1" parent="1">
          <mxGeometry x="10" y="170" width="55" height="20" as="geometry" />
        </mxCell>
        <mxCell id="X7LjUGPbY0fBhvlBGE30-41" value="&lt;u&gt;room no.&lt;/u&gt;" style="ellipse;whiteSpace=wrap;html=1;fontFamily=Helvetica;fontSize=11;fontColor=default;labelBackgroundColor=default;" vertex="1" parent="1">
          <mxGeometry x="370" y="15" width="55" height="20" as="geometry" />
        </mxCell>
        <mxCell id="X7LjUGPbY0fBhvlBGE30-78" style="edgeStyle=orthogonalEdgeStyle;rounded=0;orthogonalLoop=1;jettySize=auto;html=1;strokeColor=default;align=center;verticalAlign=middle;fontFamily=Helvetica;fontSize=11;fontColor=default;labelBackgroundColor=default;endArrow=none;endFill=0;" edge="1" parent="1" source="X7LjUGPbY0fBhvlBGE30-42" target="X7LjUGPbY0fBhvlBGE30-2">
          <mxGeometry relative="1" as="geometry" />
        </mxCell>
        <mxCell id="X7LjUGPbY0fBhvlBGE30-42" value="price" style="ellipse;whiteSpace=wrap;html=1;fontFamily=Helvetica;fontSize=11;fontColor=default;labelBackgroundColor=default;" vertex="1" parent="1">
          <mxGeometry x="450" y="10" width="55" height="20" as="geometry" />
        </mxCell>
        <mxCell id="X7LjUGPbY0fBhvlBGE30-43" value="room type" style="ellipse;whiteSpace=wrap;html=1;fontFamily=Helvetica;fontSize=11;fontColor=default;labelBackgroundColor=default;" vertex="1" parent="1">
          <mxGeometry x="540" y="10" width="80" height="30" as="geometry" />
        </mxCell>
        <mxCell id="X7LjUGPbY0fBhvlBGE30-81" style="edgeStyle=orthogonalEdgeStyle;rounded=0;orthogonalLoop=1;jettySize=auto;html=1;strokeColor=default;align=center;verticalAlign=middle;fontFamily=Helvetica;fontSize=11;fontColor=default;labelBackgroundColor=default;endArrow=none;endFill=0;" edge="1" parent="1" source="X7LjUGPbY0fBhvlBGE30-44" target="X7LjUGPbY0fBhvlBGE30-3">
          <mxGeometry relative="1" as="geometry" />
        </mxCell>
        <mxCell id="X7LjUGPbY0fBhvlBGE30-44" value="fcost" style="ellipse;whiteSpace=wrap;html=1;fontFamily=Helvetica;fontSize=11;fontColor=default;labelBackgroundColor=default;" vertex="1" parent="1">
          <mxGeometry x="670" y="10" width="55" height="20" as="geometry" />
        </mxCell>
        <mxCell id="X7LjUGPbY0fBhvlBGE30-82" style="edgeStyle=orthogonalEdgeStyle;rounded=0;orthogonalLoop=1;jettySize=auto;html=1;strokeColor=default;align=center;verticalAlign=middle;fontFamily=Helvetica;fontSize=11;fontColor=default;labelBackgroundColor=default;endArrow=none;endFill=0;" edge="1" parent="1" source="X7LjUGPbY0fBhvlBGE30-45" target="X7LjUGPbY0fBhvlBGE30-3">
          <mxGeometry relative="1" as="geometry" />
        </mxCell>
        <mxCell id="X7LjUGPbY0fBhvlBGE30-45" value="&lt;u&gt;Fid&lt;/u&gt;" style="ellipse;whiteSpace=wrap;html=1;fontFamily=Helvetica;fontSize=11;fontColor=default;labelBackgroundColor=default;" vertex="1" parent="1">
          <mxGeometry x="775" y="20" width="55" height="20" as="geometry" />
        </mxCell>
        <mxCell id="X7LjUGPbY0fBhvlBGE30-83" style="edgeStyle=orthogonalEdgeStyle;rounded=0;orthogonalLoop=1;jettySize=auto;html=1;strokeColor=default;align=center;verticalAlign=middle;fontFamily=Helvetica;fontSize=11;fontColor=default;labelBackgroundColor=default;endArrow=none;endFill=0;" edge="1" parent="1" source="X7LjUGPbY0fBhvlBGE30-46" target="X7LjUGPbY0fBhvlBGE30-3">
          <mxGeometry relative="1" as="geometry" />
        </mxCell>
        <mxCell id="X7LjUGPbY0fBhvlBGE30-46" value="availability" style="ellipse;whiteSpace=wrap;html=1;fontFamily=Helvetica;fontSize=11;fontColor=default;labelBackgroundColor=default;" vertex="1" parent="1">
          <mxGeometry x="760" y="150" width="75" height="30" as="geometry" />
        </mxCell>
        <mxCell id="X7LjUGPbY0fBhvlBGE30-97" style="edgeStyle=orthogonalEdgeStyle;rounded=0;orthogonalLoop=1;jettySize=auto;html=1;entryX=0;entryY=0;entryDx=0;entryDy=0;strokeColor=default;align=center;verticalAlign=middle;fontFamily=Helvetica;fontSize=11;fontColor=default;labelBackgroundColor=default;endArrow=none;endFill=0;" edge="1" parent="1" source="X7LjUGPbY0fBhvlBGE30-51" target="X7LjUGPbY0fBhvlBGE30-4">
          <mxGeometry relative="1" as="geometry" />
        </mxCell>
        <mxCell id="X7LjUGPbY0fBhvlBGE30-51" value="name" style="ellipse;whiteSpace=wrap;html=1;fontFamily=Helvetica;fontSize=11;fontColor=default;labelBackgroundColor=default;" vertex="1" parent="1">
          <mxGeometry x="115" y="230" width="55" height="20" as="geometry" />
        </mxCell>
        <mxCell id="X7LjUGPbY0fBhvlBGE30-98" style="edgeStyle=orthogonalEdgeStyle;rounded=0;orthogonalLoop=1;jettySize=auto;html=1;strokeColor=default;align=center;verticalAlign=middle;fontFamily=Helvetica;fontSize=11;fontColor=default;labelBackgroundColor=default;endArrow=none;endFill=0;" edge="1" parent="1" source="X7LjUGPbY0fBhvlBGE30-52" target="X7LjUGPbY0fBhvlBGE30-4">
          <mxGeometry relative="1" as="geometry" />
        </mxCell>
        <mxCell id="X7LjUGPbY0fBhvlBGE30-52" value="&lt;u&gt;guest id&lt;/u&gt;" style="ellipse;whiteSpace=wrap;html=1;fontFamily=Helvetica;fontSize=11;fontColor=default;labelBackgroundColor=default;" vertex="1" parent="1">
          <mxGeometry x="100" y="305" width="55" height="20" as="geometry" />
        </mxCell>
        <mxCell id="X7LjUGPbY0fBhvlBGE30-53" value="departure time" style="ellipse;whiteSpace=wrap;html=1;fontFamily=Helvetica;fontSize=11;fontColor=default;labelBackgroundColor=default;" vertex="1" parent="1">
          <mxGeometry x="220" y="207.5" width="80" height="45" as="geometry" />
        </mxCell>
        <mxCell id="X7LjUGPbY0fBhvlBGE30-94" style="edgeStyle=orthogonalEdgeStyle;rounded=0;orthogonalLoop=1;jettySize=auto;html=1;entryX=1;entryY=0.25;entryDx=0;entryDy=0;strokeColor=default;align=center;verticalAlign=middle;fontFamily=Helvetica;fontSize=11;fontColor=default;labelBackgroundColor=default;endArrow=none;endFill=0;" edge="1" parent="1" source="X7LjUGPbY0fBhvlBGE30-54" target="X7LjUGPbY0fBhvlBGE30-4">
          <mxGeometry relative="1" as="geometry" />
        </mxCell>
        <mxCell id="X7LjUGPbY0fBhvlBGE30-54" value="arrival time" style="ellipse;whiteSpace=wrap;html=1;fontFamily=Helvetica;fontSize=11;fontColor=default;labelBackgroundColor=default;" vertex="1" parent="1">
          <mxGeometry x="310" y="210" width="67.5" height="40" as="geometry" />
        </mxCell>
        <mxCell id="X7LjUGPbY0fBhvlBGE30-99" style="edgeStyle=orthogonalEdgeStyle;rounded=0;orthogonalLoop=1;jettySize=auto;html=1;strokeColor=default;align=center;verticalAlign=middle;fontFamily=Helvetica;fontSize=11;fontColor=default;labelBackgroundColor=default;endArrow=none;endFill=0;" edge="1" parent="1" source="X7LjUGPbY0fBhvlBGE30-55" target="X7LjUGPbY0fBhvlBGE30-4">
          <mxGeometry relative="1" as="geometry" />
        </mxCell>
        <mxCell id="X7LjUGPbY0fBhvlBGE30-55" value="address" style="ellipse;whiteSpace=wrap;html=1;fontFamily=Helvetica;fontSize=11;fontColor=default;labelBackgroundColor=default;" vertex="1" parent="1">
          <mxGeometry x="100" y="340" width="55" height="20" as="geometry" />
        </mxCell>
        <mxCell id="X7LjUGPbY0fBhvlBGE30-89" style="edgeStyle=orthogonalEdgeStyle;rounded=0;orthogonalLoop=1;jettySize=auto;html=1;entryX=1;entryY=0.5;entryDx=0;entryDy=0;strokeColor=default;align=center;verticalAlign=middle;fontFamily=Helvetica;fontSize=11;fontColor=default;labelBackgroundColor=default;endArrow=none;endFill=0;" edge="1" parent="1" source="X7LjUGPbY0fBhvlBGE30-61" target="X7LjUGPbY0fBhvlBGE30-20">
          <mxGeometry relative="1" as="geometry" />
        </mxCell>
        <mxCell id="X7LjUGPbY0fBhvlBGE30-61" value="meal desc" style="ellipse;whiteSpace=wrap;html=1;fontFamily=Helvetica;fontSize=11;fontColor=default;labelBackgroundColor=default;" vertex="1" parent="1">
          <mxGeometry x="665" y="420" width="75" height="30" as="geometry" />
        </mxCell>
        <mxCell id="X7LjUGPbY0fBhvlBGE30-92" style="edgeStyle=orthogonalEdgeStyle;rounded=0;orthogonalLoop=1;jettySize=auto;html=1;entryX=0.5;entryY=1;entryDx=0;entryDy=0;strokeColor=default;align=center;verticalAlign=middle;fontFamily=Helvetica;fontSize=11;fontColor=default;labelBackgroundColor=default;endArrow=none;endFill=0;" edge="1" parent="1" source="X7LjUGPbY0fBhvlBGE30-63" target="X7LjUGPbY0fBhvlBGE30-20">
          <mxGeometry relative="1" as="geometry" />
        </mxCell>
        <mxCell id="X7LjUGPbY0fBhvlBGE30-63" value="addons" style="ellipse;whiteSpace=wrap;html=1;fontFamily=Helvetica;fontSize=11;fontColor=default;labelBackgroundColor=default;" vertex="1" parent="1">
          <mxGeometry x="530" y="475" width="55" height="20" as="geometry" />
        </mxCell>
        <mxCell id="X7LjUGPbY0fBhvlBGE30-64" value="meal id" style="ellipse;whiteSpace=wrap;html=1;fontFamily=Helvetica;fontSize=11;fontColor=default;labelBackgroundColor=default;" vertex="1" parent="1">
          <mxGeometry x="555" y="335" width="55" height="20" as="geometry" />
        </mxCell>
        <mxCell id="X7LjUGPbY0fBhvlBGE30-105" style="edgeStyle=orthogonalEdgeStyle;rounded=0;orthogonalLoop=1;jettySize=auto;html=1;exitX=0.5;exitY=1;exitDx=0;exitDy=0;entryX=0.75;entryY=0;entryDx=0;entryDy=0;strokeColor=default;align=center;verticalAlign=middle;fontFamily=Helvetica;fontSize=11;fontColor=default;labelBackgroundColor=default;endArrow=none;endFill=0;" edge="1" parent="1" source="X7LjUGPbY0fBhvlBGE30-67" target="X7LjUGPbY0fBhvlBGE30-19">
          <mxGeometry relative="1" as="geometry" />
        </mxCell>
        <mxCell id="X7LjUGPbY0fBhvlBGE30-67" value="name" style="ellipse;whiteSpace=wrap;html=1;fontFamily=Helvetica;fontSize=11;fontColor=default;labelBackgroundColor=default;" vertex="1" parent="1">
          <mxGeometry x="115" y="410" width="55" height="20" as="geometry" />
        </mxCell>
        <mxCell id="X7LjUGPbY0fBhvlBGE30-100" style="edgeStyle=orthogonalEdgeStyle;rounded=0;orthogonalLoop=1;jettySize=auto;html=1;strokeColor=default;align=center;verticalAlign=middle;fontFamily=Helvetica;fontSize=11;fontColor=default;labelBackgroundColor=default;endArrow=none;endFill=0;" edge="1" parent="1" source="X7LjUGPbY0fBhvlBGE30-68" target="X7LjUGPbY0fBhvlBGE30-19">
          <mxGeometry relative="1" as="geometry" />
        </mxCell>
        <mxCell id="X7LjUGPbY0fBhvlBGE30-68" value="bill id" style="ellipse;whiteSpace=wrap;html=1;fontFamily=Helvetica;fontSize=11;fontColor=default;labelBackgroundColor=default;" vertex="1" parent="1">
          <mxGeometry x="45" y="400" width="55" height="20" as="geometry" />
        </mxCell>
        <mxCell id="X7LjUGPbY0fBhvlBGE30-108" style="edgeStyle=orthogonalEdgeStyle;rounded=0;orthogonalLoop=1;jettySize=auto;html=1;entryX=0;entryY=0.5;entryDx=0;entryDy=0;strokeColor=default;align=center;verticalAlign=middle;fontFamily=Helvetica;fontSize=11;fontColor=default;labelBackgroundColor=default;endArrow=none;endFill=0;" edge="1" parent="1" source="X7LjUGPbY0fBhvlBGE30-69" target="X7LjUGPbY0fBhvlBGE30-19">
          <mxGeometry relative="1" as="geometry" />
        </mxCell>
        <mxCell id="X7LjUGPbY0fBhvlBGE30-69" value="date" style="ellipse;whiteSpace=wrap;html=1;fontFamily=Helvetica;fontSize=11;fontColor=default;labelBackgroundColor=default;" vertex="1" parent="1">
          <mxGeometry y="530" width="55" height="20" as="geometry" />
        </mxCell>
        <mxCell id="X7LjUGPbY0fBhvlBGE30-106" style="edgeStyle=orthogonalEdgeStyle;rounded=0;orthogonalLoop=1;jettySize=auto;html=1;exitX=0.5;exitY=0;exitDx=0;exitDy=0;strokeColor=default;align=center;verticalAlign=middle;fontFamily=Helvetica;fontSize=11;fontColor=default;labelBackgroundColor=default;endArrow=none;endFill=0;" edge="1" parent="1" source="X7LjUGPbY0fBhvlBGE30-70" target="X7LjUGPbY0fBhvlBGE30-19">
          <mxGeometry relative="1" as="geometry" />
        </mxCell>
        <mxCell id="X7LjUGPbY0fBhvlBGE30-70" value="type" style="ellipse;whiteSpace=wrap;html=1;fontFamily=Helvetica;fontSize=11;fontColor=default;labelBackgroundColor=default;" vertex="1" parent="1">
          <mxGeometry x="100" y="535" width="55" height="20" as="geometry" />
        </mxCell>
        <mxCell id="X7LjUGPbY0fBhvlBGE30-74" style="edgeStyle=orthogonalEdgeStyle;rounded=0;orthogonalLoop=1;jettySize=auto;html=1;entryX=0.417;entryY=1;entryDx=0;entryDy=0;entryPerimeter=0;strokeColor=default;align=center;verticalAlign=middle;fontFamily=Helvetica;fontSize=11;fontColor=default;labelBackgroundColor=default;endArrow=none;endFill=0;" edge="1" parent="1" source="X7LjUGPbY0fBhvlBGE30-40" target="X7LjUGPbY0fBhvlBGE30-1">
          <mxGeometry relative="1" as="geometry" />
        </mxCell>
        <mxCell id="X7LjUGPbY0fBhvlBGE30-80" style="edgeStyle=orthogonalEdgeStyle;rounded=0;orthogonalLoop=1;jettySize=auto;html=1;entryX=0.897;entryY=-0.011;entryDx=0;entryDy=0;entryPerimeter=0;strokeColor=default;align=center;verticalAlign=middle;fontFamily=Helvetica;fontSize=11;fontColor=default;labelBackgroundColor=default;endArrow=none;endFill=0;" edge="1" parent="1" source="X7LjUGPbY0fBhvlBGE30-43" target="X7LjUGPbY0fBhvlBGE30-2">
          <mxGeometry relative="1" as="geometry" />
        </mxCell>
        <mxCell id="X7LjUGPbY0fBhvlBGE30-103" style="edgeStyle=orthogonalEdgeStyle;rounded=0;orthogonalLoop=1;jettySize=auto;html=1;entryX=0.75;entryY=1;entryDx=0;entryDy=0;strokeColor=default;align=center;verticalAlign=middle;fontFamily=Helvetica;fontSize=11;fontColor=default;labelBackgroundColor=default;endArrow=none;endFill=0;" edge="1" parent="1" source="X7LjUGPbY0fBhvlBGE30-102" target="X7LjUGPbY0fBhvlBGE30-2">
          <mxGeometry relative="1" as="geometry" />
        </mxCell>
        <mxCell id="X7LjUGPbY0fBhvlBGE30-102" value="employee" style="ellipse;whiteSpace=wrap;html=1;fontFamily=Helvetica;fontSize=11;fontColor=default;labelBackgroundColor=default;" vertex="1" parent="1">
          <mxGeometry x="540" y="170" width="55" height="20" as="geometry" />
        </mxCell>
        <mxCell id="X7LjUGPbY0fBhvlBGE30-109" style="edgeStyle=orthogonalEdgeStyle;rounded=0;orthogonalLoop=1;jettySize=auto;html=1;exitX=0.5;exitY=0;exitDx=0;exitDy=0;entryX=0;entryY=0;entryDx=0;entryDy=0;strokeColor=default;align=center;verticalAlign=middle;fontFamily=Helvetica;fontSize=11;fontColor=default;labelBackgroundColor=default;endArrow=none;endFill=0;" edge="1" parent="1" source="X7LjUGPbY0fBhvlBGE30-38" target="X7LjUGPbY0fBhvlBGE30-38">
          <mxGeometry relative="1" as="geometry" />
        </mxCell>
        <mxCell id="X7LjUGPbY0fBhvlBGE30-111" value="1" style="text;strokeColor=none;align=center;fillColor=none;html=1;verticalAlign=middle;whiteSpace=wrap;rounded=0;fontFamily=Helvetica;fontSize=11;fontColor=default;labelBackgroundColor=default;" vertex="1" parent="1">
          <mxGeometry x="160" y="75" width="60" height="30" as="geometry" />
        </mxCell>
        <mxCell id="X7LjUGPbY0fBhvlBGE30-114" value="1" style="text;strokeColor=none;align=center;fillColor=none;html=1;verticalAlign=middle;whiteSpace=wrap;rounded=0;fontFamily=Helvetica;fontSize=11;fontColor=default;labelBackgroundColor=default;" vertex="1" parent="1">
          <mxGeometry x="510" y="75" width="60" height="30" as="geometry" />
        </mxCell>
        <mxCell id="X7LjUGPbY0fBhvlBGE30-115" value="1" style="text;strokeColor=none;align=center;fillColor=none;html=1;verticalAlign=middle;whiteSpace=wrap;rounded=0;fontFamily=Helvetica;fontSize=11;fontColor=default;labelBackgroundColor=default;" vertex="1" parent="1">
          <mxGeometry x="300" y="310" width="60" height="30" as="geometry" />
        </mxCell>
        <mxCell id="X7LjUGPbY0fBhvlBGE30-116" value="N" style="text;strokeColor=none;align=center;fillColor=none;html=1;verticalAlign=middle;whiteSpace=wrap;rounded=0;fontFamily=Helvetica;fontSize=11;fontColor=default;labelBackgroundColor=default;" vertex="1" parent="1">
          <mxGeometry x="350" y="65" width="80" height="50" as="geometry" />
        </mxCell>
        <mxCell id="X7LjUGPbY0fBhvlBGE30-117" value="N" style="text;strokeColor=none;align=center;fillColor=none;html=1;verticalAlign=middle;whiteSpace=wrap;rounded=0;fontFamily=Helvetica;fontSize=11;fontColor=default;labelBackgroundColor=default;" vertex="1" parent="1">
          <mxGeometry x="657.5" y="155" width="80" height="50" as="geometry" />
        </mxCell>
        <mxCell id="X7LjUGPbY0fBhvlBGE30-119" value="N" style="text;strokeColor=none;align=center;fillColor=none;html=1;verticalAlign=middle;whiteSpace=wrap;rounded=0;fontFamily=Helvetica;fontSize=11;fontColor=default;labelBackgroundColor=default;" vertex="1" parent="1">
          <mxGeometry x="475" y="370" width="80" height="50" as="geometry" />
        </mxCell>
      </root>
    </mxGraphModel>
  </diagram>
</mxfile>
